<svg width="36" height="32" viewBox="0 0 36 32" fill="none" xmlns="http://www.w3.org/2000/svg">
<path d="M17.981 19.1789C19.7544 19.1789 21.1919 17.7413 21.1919 15.968C21.1919 14.1946 19.7544 12.7571 17.981 12.7571C16.2077 12.7571 14.7701 14.1946 14.7701 15.968C14.7701 17.7413 16.2077 19.1789 17.981 19.1789Z" fill="#00D8FF"/>
<path d="M17.981 23.3298C14.1217 23.4231 10.272 22.9029 6.57592 21.7885C4.86852 21.2473 3.27606 20.3947 1.87902 19.2738C1.34592 18.8908 0.901969 18.3971 0.57763 17.8265C0.253292 17.2558 0.0562416 16.6218 0 15.9678C0 13.8448 2.3324 11.7641 6.23941 10.4027C10.0344 9.19636 13.9994 8.61171 17.981 8.67138C21.9095 8.6165 25.8214 9.19058 29.5685 10.3719C31.2129 10.8961 32.7513 11.7075 34.1126 12.7685C34.6366 13.1336 35.0738 13.6094 35.3935 14.1623C35.7131 14.7152 35.9072 15.3316 35.962 15.9678C35.962 18.1744 33.3548 20.4104 29.1549 21.8001C25.5304 22.8782 21.762 23.394 17.981 23.3298ZM17.981 10.2075C14.1718 10.1566 10.3787 10.7124 6.74417 11.854C3.14796 13.1088 1.53609 14.8247 1.53609 15.964C1.53609 17.1559 3.26869 19.0297 7.07296 20.3308C10.6089 21.3915 14.2906 21.8852 17.981 21.7937C21.5983 21.8584 25.2042 21.3689 28.6733 20.3424C32.6227 19.0336 34.4208 17.1571 34.4208 15.9678C34.356 15.5597 34.2073 15.1694 33.984 14.8217C33.7607 14.474 33.4678 14.1763 33.1236 13.9475C31.9057 13.0063 30.5314 12.2872 29.0638 11.8232C25.4791 10.6978 21.7377 10.1523 17.981 10.2075Z" fill="#00D8FF"/>
<path d="M10.6858 31.9824C10.0867 31.9962 9.49459 31.8508 8.96993 31.5611C7.13073 30.5003 6.49368 27.4409 7.26558 23.3759C8.11666 19.4857 9.5913 15.7588 11.6324 12.3394C13.547 8.90905 15.9982 5.80708 18.8929 3.15113C20.1685 1.98841 21.64 1.0609 23.2392 0.411597C23.8176 0.14052 24.4486 0 25.0873 0C25.7261 0 26.3571 0.14052 26.9355 0.411597C28.8479 1.51358 29.4811 4.88887 28.5885 9.22101C27.7112 12.9001 26.2748 16.423 24.3296 19.6667C22.4823 23.0566 20.1084 26.1315 17.2964 28.7767C15.9745 29.985 14.4404 30.9382 12.7716 31.5881C12.1035 31.8361 11.3983 31.9694 10.6858 31.9824ZM12.963 13.1023C11.016 16.3766 9.60268 19.9399 8.77599 23.6585C8.06574 27.4024 8.74773 29.6539 9.73926 30.2267C10.7667 30.8214 13.261 30.2575 16.2895 27.6117C18.9738 25.0776 21.2397 22.1342 23.0028 18.891C24.8664 15.7899 26.2442 12.4218 27.0884 8.90378C27.9283 4.82594 27.2027 2.32915 26.1726 1.73577C25.7866 1.58785 25.374 1.52163 24.961 1.54131C24.5481 1.56098 24.1437 1.66612 23.7734 1.85008C22.35 2.43748 21.0413 3.27139 19.9075 4.31348C17.1419 6.85752 14.8005 9.82715 12.972 13.1101L12.963 13.1023Z" fill="#00D8FF"/>
<path d="M25.2724 31.999C23.5321 31.999 21.3217 30.9459 19.0201 28.9667C16.0747 26.2866 13.5821 23.1477 11.6389 19.6718C9.62343 16.2995 8.16047 12.6265 7.30551 8.79195C6.93473 7.10493 6.86602 5.36553 7.10258 3.65452C7.15727 3.0198 7.35054 2.4048 7.66877 1.8529C7.98699 1.301 8.42242 0.825631 8.94435 0.460318C10.8542 -0.645515 14.0946 0.491142 17.4019 3.42719C20.1511 6.0244 22.4858 9.02789 24.3245 12.3329C26.3388 15.6265 27.8171 19.2191 28.7042 22.9764C29.091 24.7253 29.1506 26.5307 28.8802 28.3014C28.8158 28.9543 28.611 29.5857 28.2798 30.1521C27.9486 30.7185 27.4988 31.2066 26.9613 31.5829C26.4452 31.869 25.8623 32.0126 25.2724 31.999ZM12.9682 18.8986C14.8324 22.2205 17.2134 25.2245 20.0219 27.7979C22.9105 30.2831 25.2018 30.8174 26.1869 30.2382C27.2144 29.6409 27.9721 27.2032 27.1912 23.259C26.3357 19.6717 24.9178 16.2424 22.9901 13.0984C21.2354 9.93519 19.007 7.05917 16.3821 4.57027C13.2688 1.80633 10.7437 1.18855 9.71497 1.78449C9.39432 2.04506 9.13118 2.36929 8.94217 2.7367C8.75316 3.10411 8.64239 3.50671 8.61684 3.9191C8.41263 5.44503 8.47915 6.99501 8.81335 8.49783C9.63572 12.1649 11.0388 15.6769 12.9695 18.9011L12.9682 18.8986Z" fill="#00D8FF"/>
</svg>
