<svg width="30" height="30" viewBox="0 0 30 30" fill="none" xmlns="http://www.w3.org/2000/svg">
<g clip-path="url(#clip0_18_39)">
<path d="M22.9688 0H7.03125C3.148 0 0 3.148 0 7.03125V22.9688C0 26.852 3.148 30 7.03125 30H22.9688C26.852 30 30 26.852 30 22.9688V7.03125C30 3.148 26.852 0 22.9688 0Z" fill="#CD6799"/>
<mask id="mask0_18_39" style="mask-type:luminance" maskUnits="userSpaceOnUse" x="3" y="6" width="24" height="18">
<path d="M3.28125 6.21094H26.7188V23.7784H3.28125V6.21094Z" fill="white"/>
</mask>
<g mask="url(#mask0_18_39)">
<path d="M23.45 16.3081C22.6327 16.3123 21.9225 16.5092 21.3278 16.8C21.1096 16.368 20.8914 15.9829 20.8529 15.7005C20.8101 15.3711 20.7588 15.17 20.8101 14.7763C20.8614 14.3827 21.0925 13.8223 21.0882 13.7795C21.0839 13.7366 21.0368 13.5357 20.5662 13.5313C20.0956 13.5271 19.6892 13.6212 19.6421 13.7453C19.595 13.8693 19.5052 14.1517 19.4453 14.4427C19.364 14.8706 18.5039 16.398 18.012 17.198C17.8537 16.8857 17.7168 16.6118 17.6868 16.3936C17.644 16.0642 17.5927 15.8631 17.644 15.4695C17.6954 15.0759 17.9264 14.5154 17.9221 14.4726C17.9179 14.4298 17.8708 14.2287 17.4002 14.2245C16.9295 14.2202 16.523 14.3143 16.476 14.4384C16.4289 14.5625 16.3776 14.8534 16.2791 15.1357C16.1808 15.4182 15.0385 17.9682 14.7389 18.627C14.6179 18.8936 14.491 19.1575 14.3582 19.4185C14.3582 19.4185 14.3539 19.4314 14.3411 19.4527C14.2993 19.5345 14.2565 19.6158 14.2127 19.6966V19.7009C14.1486 19.8165 14.08 19.9233 14.0458 19.9233C14.0201 19.9233 13.9731 19.6154 14.0543 19.1961C14.2255 18.3104 14.632 16.9327 14.6277 16.8857C14.6277 16.86 14.7047 16.6204 14.3624 16.4963C14.0287 16.3722 13.9089 16.5776 13.8789 16.5776C13.849 16.5776 13.8276 16.6504 13.8276 16.6504C13.8276 16.6504 14.1999 15.1015 13.1174 15.1015C12.4414 15.1015 11.5087 15.8417 11.0467 16.5092C10.5214 16.795 9.99651 17.0817 9.47207 17.3691C9.21977 17.5103 8.95879 17.6515 8.7148 17.7842C8.69769 17.7671 8.68059 17.7456 8.66348 17.7285C7.35426 16.3294 4.9327 15.3412 5.03535 13.4629C5.07391 12.7783 5.30922 10.9813 9.68605 8.7993C13.2885 7.0238 16.1552 7.51575 16.6514 8.60677C17.3616 10.1642 15.1155 13.0564 11.3932 13.4757C9.9727 13.634 9.22832 13.0864 9.04012 12.8811C8.84324 12.6671 8.81324 12.6543 8.74047 12.6971C8.6207 12.7612 8.69769 12.9537 8.74047 13.0649C8.8518 13.3559 9.30953 13.8693 10.0839 14.1217C10.7685 14.3443 12.4328 14.4684 14.448 13.6897C16.7028 12.8168 18.4655 10.3908 17.9478 8.35868C17.4302 6.29641 14.0073 5.61614 10.7685 6.76704C8.84312 7.45165 6.75531 8.52977 5.25355 9.93309C3.46937 11.6018 3.18707 13.0522 3.30262 13.6597C3.71758 15.816 6.69109 17.2193 7.88055 18.259C7.82066 18.2932 7.765 18.3232 7.71801 18.3489C7.12328 18.6441 4.8557 19.8292 4.29086 21.0829C3.64914 22.5033 4.39363 23.5216 4.88559 23.6584C6.41301 24.0821 7.9832 23.3205 8.82613 22.0626C9.66895 20.8047 9.56629 19.1704 9.17687 18.4217C9.1727 18.4122 9.16691 18.4035 9.15977 18.396C9.31387 18.3061 9.47207 18.212 9.62617 18.1222C9.90931 17.9548 10.196 17.7936 10.4861 17.6386C10.3407 18.0366 10.2337 18.5115 10.1823 19.1961C10.1182 20.0004 10.4477 21.0443 10.8797 21.4551C11.0723 21.6347 11.299 21.6391 11.4446 21.6391C11.9494 21.6391 12.1762 21.2198 12.4286 20.7235C12.7366 20.1159 13.0148 19.4099 13.0148 19.4099C13.0148 19.4099 12.6681 21.3182 13.6094 21.3182C13.9517 21.3182 14.2982 20.8733 14.4523 20.6465V20.6507C14.4523 20.6507 14.4609 20.6379 14.478 20.6079C14.5122 20.5523 14.5335 20.5181 14.5335 20.5181V20.5095C14.6705 20.27 14.9785 19.7266 15.4363 18.8238C16.0267 17.6601 16.5958 16.2054 16.5958 16.2054C16.5958 16.2054 16.6471 16.5605 16.8225 17.1509C16.9252 17.4975 17.1392 17.8783 17.3103 18.2463C17.1734 18.4388 17.0879 18.5457 17.0879 18.5457L17.0921 18.55C16.9809 18.6954 16.8611 18.8538 16.7284 19.0077C16.262 19.564 15.7059 20.2015 15.6289 20.3855C15.539 20.6037 15.5604 20.7619 15.7315 20.8904C15.8556 20.9845 16.078 20.9972 16.3048 20.9845C16.7241 20.9545 17.0194 20.8518 17.1648 20.7876C17.3916 20.7064 17.6569 20.5823 17.905 20.3983C18.3629 20.0603 18.6409 19.5768 18.6153 18.9393C18.6024 18.5884 18.4868 18.2377 18.3457 17.9082C18.3885 17.8483 18.427 17.7884 18.4697 17.7285C19.1929 16.6717 19.7533 15.5123 19.7533 15.5123C19.7533 15.5123 19.8046 15.8674 19.98 16.4579C20.0656 16.7573 20.241 17.0825 20.3951 17.3991C19.7148 17.9511 19.2955 18.5928 19.1458 19.0121C18.8763 19.7908 19.0859 20.1415 19.4838 20.2229C19.6635 20.2614 19.9202 20.1759 20.1085 20.0945C20.348 20.0175 20.6304 19.8849 20.9 19.688C21.3577 19.35 21.7984 18.8794 21.7728 18.2419C21.7599 17.9511 21.6829 17.6643 21.5759 17.3862C22.1535 17.1467 22.898 17.014 23.8478 17.1252C25.8844 17.3649 26.2866 18.6356 26.2095 19.1704C26.1325 19.7051 25.7046 19.9961 25.5634 20.086C25.4223 20.1759 25.3752 20.2057 25.3881 20.27C25.4052 20.3641 25.4737 20.3597 25.5934 20.3426C25.7603 20.3127 26.663 19.9106 26.7016 18.9265C26.7658 17.6686 25.5678 16.2952 23.45 16.3081ZM7.73934 21.6049C7.0634 22.3407 6.12215 22.6189 5.71562 22.3836C5.27922 22.131 5.45031 21.0443 6.28047 20.2656C6.7852 19.7908 7.43559 19.35 7.86766 19.0805C7.96609 19.0206 8.11152 18.9351 8.28695 18.8281C8.31695 18.811 8.33406 18.8024 8.33406 18.8024L8.43672 18.7382C8.74047 19.8507 8.44949 20.8305 7.73934 21.6049ZM12.6596 18.259C12.4243 18.8324 11.9323 20.2999 11.6328 20.2186C11.3761 20.1501 11.2178 19.0377 11.5814 17.9382C11.7654 17.3862 12.1547 16.7274 12.3815 16.4706C12.7495 16.0599 13.1559 15.923 13.2543 16.0899C13.3784 16.3081 12.8051 17.8996 12.6596 18.259ZM16.7199 20.2015C16.6214 20.2529 16.5273 20.2871 16.4846 20.2614C16.4546 20.2443 16.5273 20.1759 16.5273 20.1759C16.5273 20.1759 17.0365 19.6281 17.2376 19.38C17.353 19.2345 17.49 19.0634 17.6355 18.8709V18.9265C17.6355 19.5811 17.0023 20.0218 16.7199 20.2015ZM19.8517 19.4869C19.7789 19.4356 19.7918 19.2645 20.0357 18.7297C20.1298 18.52 20.3523 18.1693 20.7331 17.8312C20.7759 17.9682 20.8059 18.1007 20.8015 18.2248C20.7973 19.0506 20.2068 19.3586 19.8517 19.4869Z" fill="white"/>
</g>
</g>
<defs>
<clipPath id="clip0_18_39">
<rect width="30" height="30" fill="white"/>
</clipPath>
</defs>
</svg>
