<svg width="24" height="24" viewBox="0 0 24 24" fill="none" xmlns="http://www.w3.org/2000/svg">
<path d="M21.3333 2.4H20V1.2C20 0.54 19.4 0 18.6667 0C17.9333 0 17.3333 0.54 17.3333 1.2V2.4H6.66667V1.2C6.66667 0.54 6.06667 0 5.33333 0C4.6 0 4 0.54 4 1.2V2.4H2.66667C1.18667 2.4 0.0133333 3.48 0.0133333 4.8L0 21.6C0 22.2365 0.280951 22.847 0.781048 23.2971C1.28115 23.7471 1.95942 24 2.66667 24H21.3333C22.8 24 24 22.92 24 21.6V4.8C24 3.48 22.8 2.4 21.3333 2.4ZM21.3333 20.4C21.3333 21.06 20.7333 21.6 20 21.6H4C3.26667 21.6 2.66667 21.06 2.66667 20.4V8.4H21.3333V20.4ZM5.33333 10.8H8V13.2H5.33333V10.8ZM10.6667 10.8H13.3333V13.2H10.6667V10.8ZM16 10.8H18.6667V13.2H16V10.8Z" fill="#333333"/>
</svg>
