<svg width="19" height="14" viewBox="0 0 19 14" fill="none" xmlns="http://www.w3.org/2000/svg">
<path fill-rule="evenodd" clip-rule="evenodd" d="M18.5826 0.431287C18.8498 0.707209 19 1.08139 19 1.47154C19 1.8617 18.8498 2.23588 18.5826 2.5118L7.89588 13.5402C7.75466 13.686 7.58699 13.8016 7.40245 13.8805C7.21791 13.9594 7.02012 14 6.82037 14C6.62063 14 6.42284 13.9594 6.2383 13.8805C6.05376 13.8016 5.88609 13.686 5.74486 13.5402L0.435273 8.0618C0.299096 7.92607 0.190478 7.76371 0.115754 7.5842C0.0410308 7.40469 0.00169892 7.21161 5.38325e-05 7.01625C-0.00159125 6.82088 0.0344835 6.62713 0.106173 6.4463C0.177862 6.26548 0.28373 6.1012 0.4176 5.96305C0.55147 5.8249 0.710661 5.71564 0.885883 5.64166C1.06111 5.56768 1.24885 5.53045 1.43817 5.53215C1.62748 5.53385 1.81457 5.57444 1.98852 5.65155C2.16247 5.72866 2.3198 5.84075 2.45132 5.98128L6.8199 10.4896L16.5656 0.431287C16.698 0.294558 16.8552 0.186093 17.0282 0.112091C17.2013 0.0380892 17.3867 0 17.5741 0C17.7614 0 17.9468 0.0380892 18.1199 0.112091C18.2929 0.186093 18.4501 0.294558 18.5826 0.431287Z" fill="black"/>
</svg>
