<svg width="30" height="30" viewBox="0 0 30 30" fill="none" xmlns="http://www.w3.org/2000/svg">
<g clip-path="url(#clip0_19_69)">
<path d="M22.9688 0H7.03125C3.148 0 0 3.148 0 7.03125V22.9688C0 26.852 3.148 30 7.03125 30H22.9688C26.852 30 30 26.852 30 22.9688V7.03125C30 3.148 26.852 0 22.9688 0Z" fill="#330000"/>
<path d="M14.5 17.8516H9.84995L8.89991 20.7891C8.87495 20.9016 8.77499 20.9766 8.66249 20.9641H6.31241C6.17495 20.9641 6.13745 20.8891 6.17495 20.7391L10.2 9.15157C10.2375 9.02665 10.275 8.88907 10.3249 8.73907C10.375 8.47657 10.3999 8.20165 10.3999 7.92661C10.3875 7.86415 10.4374 7.80157 10.5 7.78915H13.7374C13.8375 7.78915 13.8874 7.82665 13.9 7.88911L18.4624 20.7642C18.4999 20.9016 18.4624 20.9641 18.3375 20.9641H15.7249C15.6375 20.9766 15.5499 20.9142 15.525 20.8266L14.5 17.8516ZM10.575 15.3141H13.75C13.675 15.0516 13.575 14.7391 13.4625 14.4141C13.35 14.0766 13.2375 13.7142 13.125 13.3392C12.9999 12.9516 12.8874 12.5766 12.7624 12.1891C12.6375 11.8017 12.525 11.4391 12.4249 11.0766C12.3249 10.7267 12.2374 10.4016 12.15 10.1016H12.1249C12.0124 10.6392 11.8749 11.1767 11.7 11.7141C11.5125 12.3141 11.325 12.9391 11.1249 13.5642C10.9635 14.1541 10.7801 14.7379 10.575 15.3141ZM21.2499 9.97657C20.8374 9.98911 20.4375 9.82657 20.1375 9.53911C19.85 9.22657 19.7 8.81407 19.7124 8.38915C19.7 7.96411 19.8624 7.56415 20.1624 7.27657C20.4624 6.98911 20.8625 6.83911 21.275 6.83911C21.7625 6.83911 22.1375 6.98911 22.4124 7.27657C22.6895 7.57963 22.8374 7.97875 22.8249 8.38915C22.8375 8.81407 22.6875 9.22657 22.3875 9.53911C22.1 9.83911 21.675 10.0017 21.2499 9.97657ZM19.85 20.8266V11.2017C19.85 11.0766 19.8999 11.0266 20.0124 11.0266H22.4874C22.5999 11.0266 22.65 11.0892 22.65 11.2017V20.8266C22.65 20.9641 22.5999 21.0267 22.4874 21.0267H20.0375C19.9125 21.0267 19.85 20.9517 19.85 20.8266Z" fill="#FF9A00"/>
</g>
<defs>
<clipPath id="clip0_19_69">
<rect width="30" height="30" fill="white"/>
</clipPath>
</defs>
</svg>
