<svg width="30" height="42" viewBox="0 0 30 42" fill="none" xmlns="http://www.w3.org/2000/svg">
<g clip-path="url(#clip0_18_8)">
<path d="M14.9817 41.8939L2.77287 38.529L0.052124 8.23315H29.9478L27.2243 38.5243L14.9817 41.8939Z" fill="#264DE4"/>
<path d="M24.8926 36.5955L27.22 10.7102H15V39.3183L24.8926 36.5955Z" fill="#2965F1"/>
<path d="M6.28936 21.9466L6.62475 25.6622H15V21.9466H6.28936ZM5.6153 14.426L5.95549 18.1417H15V14.426H5.6153ZM15 31.5966L14.9836 31.6009L10.8155 30.4835L10.549 27.5201H6.79198L7.31627 33.3543L14.9828 35.4671L15 35.4624V31.5966Z" fill="#EBEBEB"/>
<path d="M7.08795 0H11.6208V1.88197H8.98358V3.76394H11.621V5.6458H7.08795V0ZM12.5274 0H17.0604V1.63649H14.4231V1.96376H17.0604V5.72771H12.5276V4.0092H15.1649V3.68192H12.5273L12.5274 0ZM17.9671 0H22.5V1.63649H19.8627V1.96376H22.5V5.72771H17.9671V4.0092H20.6044V3.68192H17.9672V0H17.9671Z" fill="black"/>
<path d="M23.6868 21.9466L24.3624 14.426H14.9871V18.1417H20.2608L19.9202 21.9466H14.9871V25.6622H19.5957L19.1612 30.4812L14.987 31.5997V35.4654L22.6596 33.3543L22.7159 32.7265L23.5955 22.9443L23.6868 21.9466Z" fill="white"/>
</g>
<defs>
<clipPath id="clip0_18_8">
<rect width="30" height="42" fill="white"/>
</clipPath>
</defs>
</svg>
