<svg width="30" height="32" viewBox="0 0 30 32" fill="none" xmlns="http://www.w3.org/2000/svg">
<path d="M5.5826 4.88165C3.67224 7.62688 3.91 11.1989 5.36953 14.1164L5.47633 14.3238L5.54467 14.4553L5.58728 14.5309L5.66341 14.667C5.70863 14.7468 5.75514 14.8261 5.80269 14.9058L5.8822 15.0368C5.93495 15.1215 5.98874 15.2057 6.04382 15.2896L6.11268 15.3959C6.18881 15.5094 6.26651 15.6225 6.3468 15.734L6.35355 15.7425L6.39305 15.7958C6.46243 15.8914 6.53388 15.986 6.60638 16.0798L6.68667 16.1819C6.75137 16.2632 6.81711 16.3438 6.88389 16.4246L6.95924 16.5145C7.04889 16.62 7.14061 16.7255 7.2339 16.8284L7.23935 16.8341L7.25001 16.8458C7.34121 16.9453 7.4345 17.0428 7.52934 17.1402L7.61872 17.2304C7.692 17.3042 7.76657 17.3767 7.84167 17.4489L7.93287 17.5357C8.03343 17.6303 8.13477 17.7233 8.23845 17.8137L8.24312 17.8179L8.29639 17.8631C8.3876 17.9423 8.48036 18.0203 8.5739 18.0975L8.68875 18.1892C8.76515 18.2503 8.84232 18.3108 8.92001 18.37L9.04396 18.4638C9.1297 18.527 9.21623 18.5891 9.30354 18.6502L9.39786 18.7172L9.4241 18.7359C9.50673 18.7931 9.5917 18.8479 9.67615 18.9027L9.78529 18.9755C9.91521 19.0573 10.0469 19.1387 10.18 19.2171L10.2891 19.2787C10.3871 19.3351 10.4856 19.3907 10.5853 19.4448L10.7493 19.5295L10.9613 19.6396L11.0102 19.6633L11.097 19.7051C11.2079 19.7581 11.3199 19.8103 11.4329 19.8608L11.5039 19.8925C11.6333 19.9491 11.764 20.0034 11.8957 20.0556L11.9913 20.0931C12.1132 20.1403 12.2369 20.1863 12.3611 20.23L12.4076 20.2461C12.5438 20.2939 12.6815 20.3378 12.82 20.3812L12.9195 20.4108C13.0603 20.4535 13.1999 20.5039 13.3451 20.5309C22.5833 22.2154 25.2667 14.9796 25.2667 14.9796C23.0128 17.9158 19.0125 18.6902 15.2222 17.828C15.0785 17.7955 14.9393 17.7506 14.7992 17.7095L14.6937 17.6773C14.5571 17.6356 14.4213 17.5915 14.2863 17.5448L14.2304 17.5248C14.11 17.4821 13.9903 17.4377 13.8713 17.3915L13.7705 17.352C13.6403 17.3005 13.5106 17.2467 13.3828 17.1909L13.3054 17.1563C13.1957 17.107 13.0866 17.0563 12.9782 17.0043L12.8836 16.9588C12.7987 16.9175 12.7147 16.8736 12.6306 16.8302L12.4619 16.7416C12.3593 16.6871 12.2587 16.6299 12.1587 16.5717L12.0563 16.5148C11.9234 16.4361 11.7918 16.3553 11.6613 16.2726L11.5548 16.2017C11.4602 16.1409 11.3665 16.0786 11.2739 16.0148L11.1832 15.9512C11.094 15.8883 11.0054 15.8244 10.9177 15.7594L10.8 15.6703C10.7194 15.6087 10.6394 15.5466 10.5604 15.4829L10.4536 15.3972C10.3528 15.3146 10.2533 15.2309 10.155 15.1454L10.1223 15.1181C10.0163 15.0246 9.91162 14.9295 9.80841 14.8328L9.72006 14.7476C9.64354 14.6753 9.56835 14.6015 9.49452 14.5265L9.40618 14.4381C9.31211 14.342 9.21987 14.2445 9.12944 14.1455L9.11567 14.1307C9.02006 14.0261 8.9265 13.9196 8.83504 13.8114L8.76151 13.7241C8.69306 13.6418 8.62576 13.5585 8.55961 13.4744L8.48556 13.3821C8.40631 13.2797 8.32852 13.1762 8.25222 13.0716C6.14802 10.2011 5.39188 6.24218 7.07384 2.99104M11.5122 2.56854C10.1309 4.55633 10.2057 7.21789 11.2835 9.32001C11.4639 9.6734 11.668 10.0141 11.8944 10.3399C12.1013 10.6369 12.331 10.9898 12.6056 11.228C12.7051 11.3377 12.8093 11.4447 12.9156 11.5497L12.9972 11.6305C13.1003 11.7306 13.2053 11.829 13.3137 11.9247L13.3267 11.9358L13.3298 11.939C13.4498 12.0442 13.5738 12.1453 13.6995 12.2451L13.7835 12.3105C13.9098 12.4072 14.0384 12.5023 14.1704 12.593L14.1816 12.6016L14.3582 12.7177L14.4419 12.7731C14.5362 12.8336 14.6316 12.8923 14.7288 12.9487L14.7693 12.9726C14.853 13.0207 14.9377 13.068 15.0227 13.1142L15.1128 13.161L15.29 13.253L15.3168 13.2652C15.4387 13.325 15.5613 13.3829 15.6868 13.4375L15.7684 13.4712C15.8687 13.5136 15.9698 13.5552 16.0716 13.5942L16.2016 13.642C16.2941 13.6763 16.3866 13.7077 16.4801 13.7389L16.6059 13.7792C16.7387 13.8202 16.8701 13.8724 17.0084 13.8956C24.141 15.0771 25.7876 9.58531 25.7876 9.58531C24.3034 11.7233 21.4288 12.7432 18.3614 11.947C18.2258 11.9113 18.0911 11.8724 17.9573 11.8303L17.836 11.7911C17.7412 11.7606 17.647 11.7282 17.5535 11.6939L17.4259 11.6464C17.3238 11.6071 17.2224 11.5661 17.1217 11.5235L17.0398 11.4889C16.9144 11.4342 16.7903 11.3765 16.6677 11.3159L16.4812 11.221L16.3736 11.1657C16.2941 11.1225 16.2151 11.0778 16.1374 11.0321L16.081 11.0001C15.9845 10.9439 15.8892 10.8857 15.7952 10.8255L15.7089 10.7681L15.5239 10.6455C15.3931 10.5547 15.2645 10.4607 15.1383 10.3635L15.0515 10.2949C13.7089 9.23504 12.6446 7.78616 12.1387 6.14344C11.6083 4.43966 11.7227 2.52722 12.6415 0.974927M16.4993 0.840329C15.685 2.03872 15.605 3.52735 16.1701 4.85099C16.7659 6.25595 17.9869 7.35794 19.4122 7.88075L19.5894 7.94181L19.6673 7.96675C19.7513 7.99326 19.8347 8.02392 19.9215 8.04003C23.8599 8.80111 24.9281 6.01924 25.2124 5.60947C24.2767 6.95675 22.7041 7.28025 20.7745 6.81176C20.6167 6.77148 20.4609 6.72335 20.3078 6.66754C20.1192 6.60044 19.9341 6.52359 19.7533 6.43732C19.4105 6.27223 19.0849 6.07361 18.7813 5.84436C17.0546 4.53424 15.9823 2.03534 17.1089 0" fill="#0868AC"/>
<path d="M15.6127 24.5969H14.5146C14.4836 24.5981 14.4537 24.6092 14.4295 24.6288C14.4053 24.6483 14.388 24.6751 14.3803 24.7052L13.9905 26.5085L13.6008 28.3118C13.5931 28.3419 13.5759 28.3687 13.5517 28.3883C13.5276 28.4078 13.4977 28.419 13.4667 28.4202H12.6895C11.9206 28.4202 12.0095 27.8883 12.167 27.1597L12.1716 27.1376L12.1888 27.0456L12.1919 27.0285L12.227 26.8414L12.2647 26.641L12.3047 26.4371L12.4819 25.5713L12.6594 24.7055C12.6628 24.6922 12.663 24.6784 12.6601 24.6651C12.6571 24.6517 12.6511 24.6393 12.6425 24.6287C12.6339 24.6181 12.6229 24.6097 12.6104 24.6041C12.598 24.5985 12.5844 24.596 12.5708 24.5966H11.4438C11.4128 24.5977 11.383 24.6089 11.3589 24.6285C11.3348 24.6481 11.3177 24.675 11.3103 24.7052L11.0678 25.8547L10.8257 27.0045L10.8251 27.0061L10.8028 27.1132C10.5237 28.3872 10.5975 29.6024 12.1145 29.6406L12.1587 29.6414H14.5396C14.5706 29.6403 14.6005 29.6291 14.6246 29.6095C14.6488 29.59 14.666 29.5632 14.6737 29.5331L15.1871 27.1194L15.7006 24.7055C15.7133 24.6457 15.6738 24.5971 15.6127 24.5969ZM3.85332 24.5841H2.64766C2.61651 24.5853 2.58657 24.5965 2.56221 24.6159C2.53785 24.6354 2.52035 24.6621 2.51228 24.6922L2.39795 25.1968L2.28362 25.7014C2.27037 25.7609 2.30908 25.8095 2.37015 25.8095H3.58517C3.61628 25.8084 3.64619 25.7972 3.67045 25.7777C3.6947 25.7582 3.712 25.7313 3.71976 25.7012L3.8302 25.1968L3.94063 24.6925C3.95336 24.633 3.91439 24.5841 3.85332 24.5841ZM3.50358 26.1546H2.28829C2.25716 26.1559 2.22724 26.167 2.20289 26.1865C2.17853 26.2059 2.16103 26.2326 2.15292 26.2627L1.9822 27.0188L1.81174 27.7747L1.76419 27.9914L1.60023 28.7632L1.43653 29.5352C1.4238 29.5947 1.39756 29.6908 1.37807 29.7485C1.37807 29.7485 1.15097 30.4241 0.769259 30.4163L0.721448 30.4152L0.391189 30.4093C0.360164 30.41 0.329934 30.4207 0.305425 30.4397C0.280916 30.4587 0.263161 30.4851 0.254772 30.515L0.128749 31.0448L0.00298514 31.5744C-0.0113062 31.6336 0.0271505 31.6825 0.0876937 31.6835C0.304142 31.6861 0.789007 31.6916 1.08237 31.6916C2.03573 31.6916 2.53852 31.1633 2.86047 29.6432L3.2375 27.8987L3.59114 26.2624C3.60387 26.2035 3.56438 26.1546 3.50358 26.1546ZM25.8804 25.7456L25.83 25.5375L25.7803 25.3244L25.7551 25.2168C25.6564 24.8331 25.3667 24.6119 24.7373 24.6119L23.7577 24.6109L22.8556 24.6096H21.8404C21.8093 24.6107 21.7795 24.6219 21.7554 24.6414C21.7313 24.661 21.7141 24.6878 21.7065 24.7179L21.6616 24.93L21.6086 25.1805L21.5938 25.2509L21.1367 27.392L20.7028 29.4245C20.6898 29.4842 20.6856 29.5575 20.6929 29.5871C20.7002 29.617 20.8174 29.6414 20.8782 29.6414H21.7938C21.8549 29.6414 21.9321 29.6305 21.9653 29.617C21.9986 29.6035 22.0477 29.4837 22.0599 29.4242L22.2226 28.6189L22.3855 27.8134L22.3858 27.8121L22.4076 27.7048L22.6051 26.7798L22.7794 25.9628C22.7871 25.9328 22.8043 25.906 22.8284 25.8865C22.8525 25.867 22.8823 25.8558 22.9132 25.8545L25.7946 25.8532C25.8557 25.8537 25.8942 25.8051 25.8804 25.7456ZM29.5896 23.8644L29.3677 23.8651H28.4455C28.4118 23.867 28.3788 23.8762 28.3489 23.8921C28.3189 23.9079 28.2928 23.93 28.2722 23.9569L26.2327 26.9445C26.1984 26.9949 26.1592 26.9877 26.1457 26.9284L25.9955 26.2702C25.9874 26.2401 25.9699 26.2133 25.9455 26.1939C25.921 26.1744 25.891 26.1633 25.8599 26.1621H24.549C24.4879 26.1621 24.4518 26.21 24.4684 26.2684L25.0559 28.3266C25.0725 28.3853 25.0738 28.4815 25.0588 28.5407L24.8028 29.5367C24.7875 29.596 24.8249 29.644 24.886 29.644H26.1818C26.2131 29.6427 26.2433 29.6317 26.2681 29.6125C26.2929 29.5932 26.311 29.5668 26.32 29.5367L26.5762 28.5407C26.5965 28.4705 26.6284 28.4042 26.6706 28.3446L29.9815 23.9504C30.0184 23.9015 29.9984 23.8618 29.9376 23.8623L29.5896 23.8644ZM19.1736 26.4417V26.4407C19.1691 26.4721 19.1536 26.5008 19.1298 26.5218C19.1061 26.5428 19.0756 26.5547 19.0439 26.5553H17.3817C17.324 26.5553 17.2949 26.5163 17.3035 26.468L17.3051 26.4641L17.304 26.4646L17.3048 26.4591L17.3124 26.4308C17.4711 26.0088 17.7944 25.7318 18.4021 25.7318C19.0866 25.7316 19.2201 26.0657 19.1736 26.4417ZM18.6859 24.5231C16.5523 24.5231 16.0467 25.8181 15.7629 27.1254C15.4794 28.4578 15.5036 29.7033 17.7117 29.7033H17.9794L18.0459 29.703H18.0615L18.3265 29.7022H18.3312C18.9143 29.6999 19.4992 29.6955 19.7359 29.6937C19.7667 29.6921 19.7963 29.6806 19.8201 29.661C19.8439 29.6413 19.8608 29.6145 19.8682 29.5845L19.9575 29.1477L19.975 29.0628L20.0815 28.5415C20.0849 28.5283 20.0851 28.5145 20.0822 28.5012C20.0793 28.4878 20.0733 28.4754 20.0646 28.4648C20.056 28.4542 20.045 28.4459 20.0326 28.4403C20.0201 28.4348 20.0065 28.4322 19.9929 28.4329H18.008C17.2183 28.4329 16.9839 28.2232 17.0704 27.6063H20.2434L20.2431 27.6066L20.2452 27.6063C20.2703 27.6053 20.2945 27.597 20.3151 27.5824C20.3356 27.5679 20.3515 27.5478 20.3608 27.5245L20.3684 27.497L20.3681 27.4972C20.8392 25.7202 20.7041 24.5233 18.6859 24.5231ZM8.60141 26.435L8.57127 26.5413L8.3317 27.3907L8.09212 28.2396C8.08233 28.2697 8.06356 28.296 8.03833 28.3151C8.01311 28.3342 7.98264 28.3451 7.95103 28.3464H6.683C5.72107 28.3464 5.48669 27.5939 5.72107 26.4843C5.95518 25.3494 6.41432 24.6439 7.36119 24.5724C8.6552 24.4747 8.914 25.3847 8.60141 26.435ZM9.47137 28.2812C9.47137 28.2812 10.0693 26.8292 10.2049 25.9909C10.3902 24.8686 9.82813 23.2405 7.65741 23.2405C5.49916 23.2405 4.56165 24.7946 4.20411 26.4843C3.84657 28.1863 4.31506 29.6786 6.4611 29.6664L8.15423 29.6601L9.7364 29.6544C9.76777 29.6529 9.79789 29.6417 9.82271 29.6225C9.84752 29.6032 9.86583 29.5768 9.87516 29.5468L10.1509 28.4955C10.1662 28.4363 10.129 28.3879 10.068 28.3874L9.8037 28.3859L9.53944 28.3843C9.48774 28.3841 9.45811 28.3503 9.46435 28.3058L9.47137 28.2812ZM20.1561 27.3091C20.1561 27.3186 20.1542 27.3281 20.1506 27.3369C20.1469 27.3458 20.1416 27.3538 20.1348 27.3606C20.1281 27.3673 20.1201 27.3727 20.1113 27.3764C20.1025 27.3801 20.093 27.382 20.0834 27.382C20.0739 27.382 20.0644 27.3801 20.0556 27.3765C20.0468 27.3728 20.0387 27.3675 20.032 27.3608C20.0252 27.354 20.0198 27.346 20.0161 27.3372C20.0125 27.3284 20.0106 27.3189 20.0106 27.3093C20.0105 27.29 20.0181 27.2715 20.0318 27.2579C20.0454 27.2442 20.0639 27.2365 20.0832 27.2365C20.1025 27.2364 20.121 27.2441 20.1347 27.2577C20.1483 27.2713 20.156 27.2898 20.1561 27.3091Z" fill="#131B28"/>
</svg>
