<svg width="19" height="27" viewBox="0 0 19 27" fill="none" xmlns="http://www.w3.org/2000/svg">
<path d="M9.5 27C9.5 27 0 14.6745 0 9.45C-1.85901e-08 8.20901 0.245725 6.98017 0.723145 5.83364C1.20056 4.68712 1.90033 3.64535 2.78249 2.76784C3.66464 1.89033 4.71191 1.19425 5.86451 0.719338C7.0171 0.244431 8.25244 0 9.5 0C10.7476 0 11.9829 0.244431 13.1355 0.719338C14.2881 1.19425 15.3354 1.89033 16.2175 2.76784C17.0997 3.64535 17.7994 4.68712 18.2769 5.83364C18.7543 6.98017 19 8.20901 19 9.45C19 14.6745 9.5 27 9.5 27ZM9.5 12.15C10.2199 12.15 10.9103 11.8655 11.4193 11.3592C11.9283 10.8528 12.2143 10.1661 12.2143 9.45C12.2143 8.73392 11.9283 8.04716 11.4193 7.54081C10.9103 7.03446 10.2199 6.75 9.5 6.75C8.78013 6.75 8.08974 7.03446 7.58071 7.54081C7.07168 8.04716 6.78571 8.73392 6.78571 9.45C6.78571 10.1661 7.07168 10.8528 7.58071 11.3592C8.08974 11.8655 8.78013 12.15 9.5 12.15Z" fill="#333333"/>
</svg>
