<svg width="28" height="22" viewBox="0 0 28 22" fill="none" xmlns="http://www.w3.org/2000/svg">
<path d="M0 2.75C0 2.02065 0.294999 1.32118 0.820101 0.805456C1.3452 0.289731 2.05739 0 2.8 0H25.2C25.9426 0 26.6548 0.289731 27.1799 0.805456C27.705 1.32118 28 2.02065 28 2.75V19.25C28 19.9793 27.705 20.6788 27.1799 21.1945C26.6548 21.7103 25.9426 22 25.2 22H2.8C2.05739 22 1.3452 21.7103 0.820101 21.1945C0.294999 20.6788 0 19.9793 0 19.25V2.75ZM4.9266 2.75L14 10.5476L23.0734 2.75H4.9266ZM25.2 4.57737L14.9226 13.4104C14.6673 13.6301 14.3394 13.7512 14 13.7512C13.6606 13.7512 13.3327 13.6301 13.0774 13.4104L2.8 4.57737V19.25H25.2V4.57737Z" fill="#333333"/>
</svg>
