<svg width="39" height="42" viewBox="0 0 39 42" fill="none" xmlns="http://www.w3.org/2000/svg">
<g clip-path="url(#clip0_18_15)">
<path opacity="0.85" d="M29.2768 0.0166318C29.745 0.00997898 30.2167 0.00332641 30.6883 0C30.695 0.25946 30.705 0.775054 30.7117 1.03451C30.23 1.03451 29.7484 1.03119 29.2701 1.03119C29.2701 0.778381 29.2768 0.272766 29.2768 0.0166318Z" fill="#101010"/>
<path d="M0.702401 0.229492C1.56201 0.236145 2.42497 0.239472 3.29127 0.242799C3.21768 1.77295 3.5187 3.36297 3.08388 4.85321C2.52196 5.92431 1.12384 5.71475 0.117067 5.73471C0.0769297 5.39541 0.0367925 5.05612 0 4.71682C0.578645 4.67025 1.20746 4.78335 1.73928 4.4873C2.08379 3.42618 1.92993 2.29187 1.84297 1.2008C1.54863 1.20746 0.963293 1.21411 0.668954 1.21744C0.678988 0.971281 0.692367 0.475647 0.702401 0.229492Z" fill="#131313"/>
<path d="M17.9247 0.648666C18.9381 -0.129715 20.2693 0.189622 21.3965 0.492326C21.3932 0.788377 21.3898 1.38048 21.3898 1.67653C20.5168 1.32725 18.8578 0.565508 18.6371 2.00252C19.4632 2.252 20.3362 2.39836 21.0855 2.8441C21.8815 3.48942 21.6574 4.95637 20.7409 5.39879C19.6974 6.01417 18.4598 5.6782 17.3594 5.45533C17.2958 4.99961 17.2323 4.54722 17.1754 4.0915C18.1019 4.49733 19.9783 5.45866 20.256 3.90522C19.3261 3.55595 18.1688 3.50606 17.4932 2.70772C17.1955 2.02913 17.2457 1.08443 17.9247 0.648666Z" fill="#131313"/>
<path d="M36.4179 0.419189C36.8092 0.419189 37.2039 0.419189 37.6019 0.419189C37.6119 0.795074 37.6253 1.17096 37.6421 1.54684C37.9431 1.55017 38.5485 1.55682 38.8528 1.56015C38.8595 1.78967 38.8696 2.24539 38.8763 2.47159C38.5686 2.46826 37.9531 2.46161 37.6454 2.45496C37.6621 3.2167 37.4648 4.04831 37.8494 4.75018C38.1371 4.78012 38.7124 4.83667 39 4.86661C38.9699 6.26703 37.3644 5.63168 36.5149 5.41214C36.4379 4.55725 36.4011 3.70236 36.4011 2.84415C36.1837 2.54144 35.9663 2.23541 35.7523 1.93271C35.9162 1.78302 36.2439 1.48364 36.4078 1.33395C36.4112 1.10443 36.4145 0.645386 36.4179 0.419189Z" fill="#131313"/>
<path d="M4.33484 1.58996C5.42523 1.53341 6.95046 1.13091 7.63613 2.25191C7.8803 3.36294 7.72644 4.5172 7.76323 5.64818C7.27489 5.60494 6.78657 5.55837 6.30157 5.51513C5.74634 5.56169 5.0941 5.97084 4.58235 5.60494C3.73278 5.19911 3.71941 3.70223 4.61247 3.33965C5.26135 3.07354 5.97044 3.02697 6.64943 2.8673C6.00389 2.20202 5.08742 2.45482 4.27464 2.54131C4.29136 2.30181 4.32146 1.82613 4.33484 1.58996ZM5.39849 3.8752C5.36169 4.19786 5.32825 4.52053 5.29814 4.84652C5.66941 4.82656 6.04068 4.80992 6.41529 4.78997C6.44205 4.44069 6.47216 4.09142 6.50226 3.74215C6.13099 3.78539 5.76307 3.83196 5.39849 3.8752Z" fill="#131313"/>
<path d="M8.2616 1.47363C8.58269 1.53683 9.22823 1.66324 9.54933 1.72644C9.88715 2.49817 10.118 3.30981 10.4457 4.08819C10.72 3.25659 10.9742 2.41501 11.2217 1.57343C11.5428 1.56677 12.1884 1.55679 12.5095 1.55014C12.0546 2.97717 11.5462 4.38757 10.9776 5.77801C10.536 5.72146 10.1012 5.62832 9.67979 5.50524C9.07104 4.2146 8.66966 2.83746 8.2616 1.47363Z" fill="#131313"/>
<path d="M12.9242 2.53476C13.0179 2.21875 13.1249 1.90274 13.242 1.59339C14.2788 1.4437 15.6836 1.22416 16.3961 2.18882C16.6402 3.33976 16.4897 4.53061 16.5131 5.69818C16.0215 5.63165 15.5331 5.56513 15.0448 5.4986C14.1685 5.96097 12.7068 5.79465 12.7268 4.5672C12.5596 3.11023 14.3892 3.09027 15.3826 2.89734C14.7839 2.099 13.747 2.52146 12.9242 2.53476ZM14.135 3.90524C14.0982 4.20462 14.0648 4.50732 14.0313 4.8067C14.3992 4.81668 14.7672 4.82666 15.1384 4.83331C15.1719 4.46408 15.2053 4.09817 15.2388 3.72894C14.8708 3.78549 14.5029 3.84537 14.135 3.90524Z" fill="#131313"/>
<path d="M21.8715 3.62253C21.7678 1.81296 24.0823 0.864933 25.4671 1.82959C25.5005 2.08573 25.5641 2.60132 25.5942 2.85746C24.9587 2.65787 24.3064 2.20548 23.6241 2.51151C22.9016 3.19675 23.0522 4.93646 24.2763 4.83335C24.6142 4.7269 25.2865 4.51401 25.6243 4.40756C25.5641 4.69363 25.447 5.26578 25.3901 5.54852C23.9419 6.22711 21.7577 5.42545 21.8715 3.62253Z" fill="#131313"/>
<path d="M26.1494 1.46021C26.6512 1.59326 27.1629 1.72632 27.668 1.86936C28.0459 1.73297 28.4272 1.59991 28.8119 1.46353C28.8286 1.78287 28.8687 2.42154 28.8888 2.74087C28.4072 2.76416 27.9255 2.78744 27.4506 2.81073C27.4171 3.76541 27.4071 4.71676 27.4004 5.67144C27.086 5.67477 26.4538 5.6781 26.1394 5.68142C26.1227 4.27435 26.1193 2.86728 26.1494 1.46021Z" fill="#131313"/>
<path d="M31.588 1.55017C32.5112 1.75641 33.441 1.69321 34.3609 1.51025C35.8024 1.8063 35.8359 3.83874 35.2873 4.9032C34.8325 5.82129 33.7187 5.7348 32.8591 5.68823C32.8657 6.17388 32.8724 6.65622 32.8791 7.14187C32.558 7.13855 31.9091 7.13189 31.5847 7.12524C31.5847 5.2691 31.5814 3.40963 31.588 1.55017ZM32.8925 2.52814C32.8791 3.30319 32.8724 4.08157 32.8791 4.85662C33.2939 4.74353 33.829 4.82336 34.1434 4.46744C34.3776 3.83542 34.1936 3.1535 34.1468 2.50153C33.7287 2.50818 33.3106 2.51816 32.8925 2.52814Z" fill="#131313"/>
<path d="M29.3972 1.56006C29.6949 1.56006 30.2903 1.56006 30.5846 1.56006C30.6047 2.93387 30.6047 4.30435 30.5846 5.67816C30.2869 5.67816 29.6949 5.67816 29.3972 5.67816C29.3738 4.30768 29.3738 2.93387 29.3972 1.56006Z" fill="#131313"/>
<path d="M4.57898 8.34931C7.91371 8.2096 11.2551 8.38922 14.5932 8.33267C18.2758 8.21625 21.9551 8.31272 25.641 8.32602C28.5643 8.33267 31.4876 8.31272 34.411 8.336C33.4911 18.425 32.5647 28.514 31.7117 38.6097C27.795 39.7174 23.875 40.8084 19.9582 41.9095C19.4565 42.1157 18.9414 41.9228 18.4598 41.7931C14.737 40.7286 11.0143 39.6741 7.2849 38.6496C6.31491 28.5573 5.40179 18.4549 4.57898 8.34931ZM19.5569 10.9805C19.4197 15.9568 19.5368 20.9331 19.4966 25.9094C19.5334 30.46 19.4298 35.0138 19.5502 39.5644C22.8414 38.7926 26.0892 37.8446 29.337 36.9099C30.1531 28.2712 30.9491 19.6325 31.6315 10.9838C27.6077 10.9439 23.5806 10.9905 19.5569 10.9805ZM15.3692 30.4134C13.4359 29.8878 11.5261 29.2824 9.56603 28.8666C9.50917 30.0242 9.52924 31.1818 9.66303 32.3327C12.5328 33.028 15.3424 33.9427 18.2156 34.6246C18.2357 28.035 18.2056 21.4421 18.229 14.8524C17.2924 14.8292 16.3559 14.8159 15.4194 14.7959C15.3123 19.9984 15.4127 25.2076 15.3692 30.4134Z" fill="#D6BA32"/>
<path d="M19.5569 10.9804C23.5806 10.9904 27.6077 10.9438 31.6315 10.9837C30.9491 19.6324 30.1531 28.2711 29.337 36.9098C26.0892 37.8445 22.8414 38.7925 19.5502 39.5643C19.4298 35.0137 19.5334 30.4599 19.4966 25.9094C19.5368 20.933 19.4197 15.9567 19.5569 10.9804ZM20.684 14.849C20.6974 19.1334 20.7008 23.4212 20.684 27.7056C22.6508 27.3896 24.6108 27.027 26.5708 26.6711C26.5407 27.669 26.5006 28.6669 26.4571 29.6649C24.5472 30.1705 22.6407 30.6927 20.7208 31.1618C20.6907 32.3127 20.6874 33.4636 20.6974 34.6179C23.1157 34.079 25.4972 33.4004 27.8987 32.7984C28.1997 32.6586 28.7784 32.6753 28.7516 32.2063C29.0426 29.126 29.2232 26.0324 29.5042 22.9455C27.5141 23.1085 25.544 23.4412 23.5539 23.5775C23.5371 21.8278 23.5338 20.0781 23.5605 18.3285C25.6544 18.3285 27.7448 18.3285 29.8387 18.3318C29.9725 17.1642 30.0895 15.9933 30.1798 14.8224C27.0157 14.8357 23.8482 14.7925 20.684 14.849Z" fill="#FFDA3E"/>
<path d="M15.3692 30.4134C15.4127 25.2076 15.3124 19.9984 15.4194 14.7959C16.3559 14.8159 17.2925 14.8292 18.229 14.8525C18.2056 21.4421 18.2357 28.035 18.2156 34.6246C15.3425 33.9427 12.5329 33.028 9.66308 32.3328C9.52928 31.1818 9.5092 30.0242 9.56606 28.8666C11.5261 29.2824 13.436 29.8878 15.3692 30.4134Z" fill="#EBEBEB"/>
</g>
<defs>
<clipPath id="clip0_18_15">
<rect width="39" height="42" fill="white"/>
</clipPath>
</defs>
</svg>
