<svg width="51" height="31" viewBox="0 0 51 31" fill="none" xmlns="http://www.w3.org/2000/svg">
<path d="M12.0328 8.07292H21.6352V8.83984H12.9094V14.6523H21.1172V15.4193H12.9094V21.7969H21.7547V22.5638H12.0328V8.07292ZM22.5117 8.07292H23.5477L28.0898 14.4505L32.6719 8.07292L38.9672 0L28.6078 15.1367L33.9469 22.5638H32.8711L28.05 15.7826L23.1891 22.5638H22.1531L27.532 15.1367L22.5117 8.07292ZM34.3453 8.83984V8.07292H45.3023V8.83984H40.2422V22.5638H39.3656V8.83984H34.3453ZM0 8.07292H1.07578L16.2961 31L10.0008 22.5638L0.916406 9.16276L0.876563 22.5638H0V8.07292ZM45.2227 21.5547C45.4219 21.5547 45.5414 21.4336 45.5414 21.2318C45.5414 21.0299 45.4219 20.9089 45.2227 20.9089C45.0234 20.9089 44.9039 21.0299 44.9039 21.2318C44.9039 21.4336 45.0633 21.5547 45.2227 21.5547ZM46.0992 20.707C46.0992 21.2318 46.4977 21.5951 47.0555 21.5951C47.6531 21.5951 48.0117 21.2318 48.0117 20.5859V18.3659H47.5336V20.5859C47.5336 20.9492 47.3742 21.1107 47.0555 21.1107C46.7766 21.1107 46.5773 20.9492 46.5773 20.6667H46.0992V20.707ZM48.6094 20.6667C48.6492 21.2318 49.0875 21.5951 49.8047 21.5951C50.5219 21.5951 51 21.2318 51 20.6263C51 20.1419 50.7211 19.8997 50.1234 19.7383L49.7648 19.6576C49.3664 19.5768 49.207 19.4154 49.207 19.2135C49.207 18.931 49.4461 18.7292 49.8445 18.7292C50.2031 18.7292 50.4422 18.8906 50.482 19.2135H50.9602C50.9203 18.6888 50.482 18.3255 49.8445 18.3255C49.1672 18.3255 48.7289 18.6888 48.7289 19.2539C48.7289 19.6979 48.968 19.9805 49.5258 20.1016L49.9242 20.1823C50.3227 20.263 50.5219 20.4245 50.5219 20.6667C50.5219 20.9492 50.243 21.151 49.8445 21.151C49.4461 21.151 49.1273 20.9492 49.0875 20.6667H48.6094Z" fill="black"/>
</svg>
