<svg width="30" height="30" viewBox="0 0 30 30" fill="none" xmlns="http://www.w3.org/2000/svg">
<g clip-path="url(#clip0_18_55)">
<path d="M22.9688 0H7.03125C3.148 0 0 3.148 0 7.03125V22.9688C0 26.852 3.148 30 7.03125 30H22.9688C26.852 30 30 26.852 30 22.9688V7.03125C30 3.148 26.852 0 22.9688 0Z" fill="#764ABC"/>
<path d="M19.521 19.4062C20.3859 19.3167 21.0421 18.571 21.0122 17.6763C20.9824 16.7816 20.2368 16.0658 19.342 16.0658H19.2824C18.3578 16.0955 17.642 16.871 17.6718 17.7956C17.7016 18.243 17.8806 18.6307 18.149 18.8991C17.1349 20.8974 15.5841 22.3589 13.2577 23.5817C11.6769 24.4168 10.0365 24.715 8.39614 24.5063C7.05399 24.3274 6.01021 23.7308 5.35396 22.7466C4.39958 21.2852 4.31017 19.7044 5.11536 18.1237C5.68208 16.9903 6.57681 16.1552 7.14353 15.7376C7.02423 15.35 6.84528 14.6937 6.75575 14.2166C2.43118 17.3483 2.87849 21.5834 4.19075 23.5817C5.17513 25.0729 7.17329 25.9975 9.3804 25.9975C9.97688 25.9975 10.5734 25.9379 11.1699 25.7887C14.9876 25.0432 17.8806 22.7764 19.521 19.4062Z" fill="white"/>
<path d="M24.7701 15.7077C22.5035 13.0532 19.1631 11.5919 15.3455 11.5919H14.8683C14.5998 11.0549 14.0331 10.697 13.4068 10.697H13.3472C12.4226 10.7269 11.7068 11.5023 11.7366 12.4269C11.7664 13.3217 12.512 14.0375 13.4068 14.0375H13.4665C14.1226 14.0077 14.6893 13.5901 14.9279 13.0234H15.4648C17.7314 13.0234 19.8789 13.6796 21.8175 14.9621C23.3087 15.9463 24.3825 17.2288 24.979 18.7797C25.486 20.0323 25.4562 21.2551 24.9193 22.2991C24.0842 23.8798 22.6825 24.7448 20.8332 24.7448C19.6403 24.7448 18.5069 24.3869 17.9103 24.1184C17.5823 24.4166 16.9858 24.8938 16.5683 25.1921C17.8507 25.7885 19.1631 26.1167 20.4157 26.1167C23.2789 26.1167 25.3965 24.5359 26.2018 22.9552C27.0668 21.2254 27.0071 18.2428 24.7701 15.7077Z" fill="white"/>
<path d="M9.61898 19.9132C9.64887 20.8079 10.3944 21.5237 11.2893 21.5237H11.3489C12.2734 21.4938 12.9893 20.7184 12.9594 19.7938C12.9296 18.8991 12.184 18.1833 11.2893 18.1833H11.2295C11.17 18.1833 11.0804 18.1833 11.0209 18.2132C9.79793 16.185 9.29098 13.9779 9.46992 11.592C9.58922 9.8025 10.1857 8.25152 11.2296 6.96891C12.0945 5.86547 13.7647 5.32863 14.898 5.29875C18.0595 5.2391 19.4017 9.17602 19.4911 10.7568C19.8789 10.8463 20.535 11.0551 20.9824 11.2042C20.6245 6.37266 17.642 3.86719 14.7787 3.86719C12.0945 3.86719 9.61898 5.80582 8.63473 8.66906C7.26281 12.4867 8.15754 16.1551 9.82769 19.0482C9.67863 19.257 9.5891 19.5851 9.61898 19.9132Z" fill="white"/>
</g>
<defs>
<clipPath id="clip0_18_55">
<rect width="30" height="30" fill="white"/>
</clipPath>
</defs>
</svg>
